PathFileType	4	(X/Y/Z)	Patient4_TMGait_0pt6_01_left_04.trc.trc
DataRate	CameraRate	NumFrames	NumMarkers	Units	OrigDataRate	OrigDataStartFrame	OrigNumFrames
78.651685393258	78.651685393258	6	33	mm	78.651685393258	106	       141
Frame#	Time	Sacral			L.Shoulder			Chest			R.Shoulder			Neck			R.ASIS			L.ASIS			R.Thigh.Superior			R.Thigh.Lateral			R.Thigh.Inferior			R.Patella			L.Thigh.Superior			L.Thigh.Lateral			L.Thigh.Inferior			L.Patella			L.Shank.Superior			L.Shank.Lateral			L.Shank.Inferior			R.Shank.Superior			R.Shank.Lateral			R.Shank.Inferior			R.Heel			R.Midfoot.Superior			R.Midfoot.Lateral			R.Toe			L.Heel			L.Midfoot.Lateral			L.Midfoot.Superior			L.Toe			L.Elbow			L.Wrist			R.Elbow			R.Wrist			
		X1	Y1	Z1	X2	Y2	Z2	X3	Y3	Z3	X4	Y4	Z4	X5	Y5	Z5	X6	Y6	Z6	X7	Y7	Z7	X8	Y8	Z8	X9	Y9	Z9	X10	Y10	Z10	X11	Y11	Z11	X12	Y12	Z12	X13	Y13	Z13	X14	Y14	Z14	X15	Y15	Z15	X16	Y16	Z16	X17	Y17	Z17	X18	Y18	Z18	X19	Y19	Z19	X20	Y20	Z20	X21	Y21	Z21	X22	Y22	Z22	X23	Y23	Z23	X24	Y24	Z24	X25	Y25	Z25	X26	Y26	Z26	X27	Y27	Z27	X28	Y28	Z28	X29	Y29	Z29	X30	Y30	Z30	X31	Y31	Z31	X32	Y32	Z32	X33	Y33	Z33	

106	6.105000000000	623.331378428357	1009.418931198040	528.022853257291	770.226417579968	1452.239967885668	369.621560840070	891.776874569939	1373.936222295112	512.962730235795	825.468958200225	1429.537258502763	699.647405720887	770.847571858830	1499.739598829999	529.399256694710	857.333180627053	946.290773333293	629.655668304376	827.065986278345	973.199214013986	357.067601270341	875.197292707757	739.691378543060	598.175679823062	781.742676380946	635.773792471381	655.976099210019	852.140549224738	579.229872099125	576.963389600266	842.002957188794	493.827032926030	580.905702007175	903.277118071725	782.853748857847	372.330897126371	848.436155566928	655.568850440314	297.474545175584	953.763036388420	593.442611480811	350.564867794136	976.992788532814	521.435731021331	340.933673962040	948.281190070899	447.503684246788	335.580934896571	854.185414481089	332.297150693238	294.830308393030	925.481349080795	219.663535523949	344.830570795224	813.035840436609	406.053055219498	582.266075562272	735.890665862706	301.006720754722	633.869740839048	783.511187799653	208.524107413028	569.497492061933	650.874346482127	42.345498244022	524.529591247983	823.808223719258	98.276710328465	563.049894606847	734.014053439574	35.952837679130	599.229796957598	941.865221869488	45.774455460497	589.070182326468	816.735919934198	52.219173052616	395.746788460785	879.447637375178	52.295849169994	306.655679340447	960.317624143100	122.043136920793	319.065925301917	1084.927359777715	80.851199547417	274.010999914283	703.537352119965	1105.147212584215	247.801763135112	789.263981783388	858.796037857948	231.039956113078	901.897257349596	1082.251303580057	791.347121055239	1143.560753283244	1037.964678281527	721.983294651147	
107	6.117714285714	622.152367477029	1009.857427943739	528.990903610899	769.746792159536	1452.279834881449	370.350286582588	891.618599016758	1373.572711198168	513.136893644059	826.100025204057	1429.205211236409	700.047996750249	770.775787235903	1499.570757948832	530.098464182338	856.276192385798	945.910602197443	629.787464927653	825.256212302795	972.941173293908	357.263772119296	872.439779389021	738.860273195932	598.730003281912	777.815594539001	635.690861136554	656.330316096057	847.503699661297	578.527958346029	577.328322175558	836.674564574053	493.297071725756	581.127471238703	900.022814376129	781.944428215282	373.293391883965	845.283778759656	654.900365304141	298.219304699344	950.326940578871	592.774393418550	352.181214818163	974.726340578336	522.893359705246	343.106816138492	949.565626554677	449.693288308766	336.732798941453	862.561808070269	329.887293543631	293.903644089675	939.441114307551	220.897061246308	343.999536039258	807.082957127864	405.774766831079	582.430402386575	729.492774787341	301.121434537788	634.121695046850	776.516588912887	208.411497145190	569.596285746750	643.182317497532	42.486720263678	524.590569691703	816.209232185729	98.218913523762	563.098414367230	726.337275468185	35.961467144355	599.246686491424	934.194630318765	45.522023071847	589.072893019571	838.772933049094	48.406106143719	392.518601386980	903.420424349884	50.802846739571	304.771637619342	980.878358017058	124.056452013546	318.376046795076	1108.127618150620	88.111164990566	276.259160856220	700.296932198999	1105.907473939448	248.592217248812	771.708744925085	855.639791784758	227.516109171689	905.491247086105	1082.934868848409	790.619067648003	1148.160750032785	1055.681920228303	718.633970158954	
108	6.130428571429	621.018630447163	1010.311095313590	529.804445738828	769.394996907380	1452.291345375238	370.867405296125	891.518770107089	1373.214111611236	513.176379377793	826.694340861461	1428.954492247317	700.252122282512	770.719544966532	1499.399408379082	530.547969253526	855.192758018327	945.517332805036	629.859535906049	823.573918609982	972.672755631501	357.400851750636	869.641301922090	738.028396792675	599.239865290628	773.853813470795	635.620226021413	656.626230829672	842.857206808647	577.841191599773	577.641981031088	831.361394814435	492.763430893529	581.318890803633	896.893024191671	780.983577984405	374.183855396803	842.047511458788	654.174722726441	298.919558139386	946.934597963855	592.008909944835	353.493122907894	972.319918709163	524.188385633379	345.131287853237	950.463111318432	451.865292059305	337.883289099123	870.383392378078	328.028647398755	293.198562690717	952.377829636766	222.805728403088	343.499345207507	801.130536762259	405.511159744803	582.573299932214	723.081920330486	301.266245837533	634.356791040781	769.516531673707	208.322063203080	569.698639952307	635.485654849748	42.641318196133	524.659878978268	808.602244295761	98.173864592238	563.162244270872	718.657857930413	35.976431243866	599.278788556021	926.520494282667	45.284568038933	589.086530356328	859.415746881772	46.136957471867	389.889231808264	925.980654895688	50.431565253785	303.567799061833	1000.144341688319	126.786253096038	318.196340392280	1129.689066654565	95.613152190422	279.280225712490	697.254992923515	1106.740880129371	249.010676667720	755.162683207644	853.634718432356	224.263513378830	908.846380333576	1083.667459822681	789.668982032554	1151.398791521056	1073.016835596703	715.320678642414	
109	6.143142857143	619.932795004133	1010.755573178386	530.446883501731	769.164919406854	1452.262799672125	371.173395851833	891.468076525576	1372.850751356559	513.091398072018	827.233583625799	1428.774765037990	700.269463971288	770.674305179341	1499.212865671422	530.762211636996	854.089173877514	945.097102030458	629.873545582677	822.029232761345	972.391436752681	357.479204528171	866.823614969633	737.197931027277	599.650233229386	769.912144733608	635.547973765236	656.843443955349	838.252355714867	577.167089889721	577.871141350818	826.110127399738	492.211622175378	581.449941856852	894.003793283854	780.044691038170	374.972183401810	838.889907925187	653.424077527386	299.578482805329	943.739931350654	591.211414718267	354.526463112506	969.929303727437	525.349458619466	346.977876355349	951.061309156903	453.962373974210	339.008897919095	877.517786195612	326.669239550806	292.786736727063	964.125072403346	225.195408965098	343.326739475027	795.230045885425	405.245643825066	582.672351526061	716.700613878785	301.433891538109	634.559902802648	762.534947117662	208.242625508441	569.786075889857	627.788599606608	42.807856165975	524.732311364376	800.989731678184	98.135462314599	563.229372866427	710.977886485508	35.999444650400	599.321208672100	918.848138531427	45.057776497263	589.109409370045	878.344498081443	45.168294421592	387.975471083465	946.705275444253	50.946933087596	303.055428993368	1017.792639827092	129.999285859411	318.464335588353	1149.273649050062	103.063097859371	282.776865479472	694.317748171565	1107.653130500568	249.048245617603	739.800722783402	852.641691241405	221.309769624211	911.990237042482	1084.444641657036	788.560086744546	1153.400051070893	1089.701238037462	712.082173049689	
110	6.155857142857	618.896834727423	1011.161798557379	530.901575847862	769.044895983175	1452.181533402473	371.271386318964	891.453665419737	1372.469810404015	512.891160641031	827.698759209718	1428.648350119809	700.110816790912	770.631932655092	1498.996965726413	530.755888717246	852.973361880189	944.638558159666	629.829021251024	820.628773608152	972.087254231260	357.496154993490	864.017351544187	736.368732258655	599.918545980525	766.047560313114	635.458398256758	656.963525171298	833.748115836171	576.499132984489	577.990479892884	820.971549811241	491.625496325252	581.493347315244	891.451171506514	779.188284529596	375.635940026093	835.972683497075	652.672295134335	300.201724171641	940.882040887138	590.440916584374	355.338876075188	967.708904316169	526.392583810842	348.636396068114	951.454368667637	455.913031508175	340.100271498867	883.845055032761	325.727957916020	292.724957525494	974.523120108121	227.833954050671	343.479160775477	789.437731363148	404.959665835555	582.707837757237	710.394582503678	301.615178571739	634.717125333179	755.597097660843	208.158221840076	569.841006747550	620.095343013040	42.985863651982	524.802903682689	793.374398488156	98.096738977462	563.287257536900	703.299727659092	36.031116222604	599.367691279408	911.182482167612	44.835213683068	589.139008350334	895.248367007766	45.197232575321	386.869618410563	965.177754903700	52.074155287407	303.217775067859	1033.502850229507	133.424397657320	319.111137247838	1166.552304775101	110.141857628151	286.432036490258	691.399954273512	1108.644557505537	248.712461087664	725.741034488892	852.488166964827	218.660608882893	914.937166089362	1085.257404094793	787.366266771584	1154.311752353458	1105.488520163046	708.953296968736	
111	6.168571428571	617.913673445857	1011.497954141714	531.153033829942	769.017537332101	1452.034942880568	371.166647015758	891.459301324305	1372.057614998336	512.582984483575	828.070576649830	1428.551843153200	699.787666153014	770.581110309477	1498.736952749182	530.543660256856	851.856011797453	944.134060509484	629.722927294232	819.377013858785	971.744658211628	357.445796166286	861.259987934972	735.538407320654	600.019135546224	762.314285494067	635.336066807733	656.972007921443	829.405526687245	575.827167885214	577.985496419919	815.997162928528	490.989501981140	581.428669445920	889.306619652619	778.457317277876	376.163563429635	833.442428328675	651.933409673445	300.793989467410	938.476475820851	589.745540713897	356.003416772757	965.797484089232	527.314275552022	350.111741408422	951.734123629464	457.634304435400	341.162474852296	889.265791602923	325.100450424479	293.049044841823	983.424823435574	230.467562850943	343.961196834705	783.809319279474	404.634817999633	582.665152257622	704.208087831655	301.800132380484	634.817169951650	748.727116747993	208.054069037496	569.848872136345	612.409731777969	43.175890439318	524.867732826763	785.759220456717	98.050878805126	563.324543602769	695.625951875234	36.070970709962	599.411071354115	903.527502998392	44.609143068275	589.172054190644	909.831701657154	45.890106828005	386.632095908192	981.013985162971	53.516098363669	304.020695159580	1046.977484986098	136.766584291090	320.080253452583	1181.229604462534	116.513940236105	289.968569674735	688.430509510869	1109.707982232465	248.028750070934	713.041573353497	852.983096735406	216.301233836271	917.686566561796	1086.091821156228	786.166322370677	1154.292814838475	1120.166792930946	705.964684965864	
